<?xml version="1.0" standalone="no"?>
<!DOCTYPE svg PUBLIC "-//W3C//DTD SVG 20010904//EN"
 "http://www.w3.org/TR/2001/REC-SVG-20010904/DTD/svg10.dtd">
<svg version="1.0" xmlns="http://www.w3.org/2000/svg"
 width="1280.000000pt" height="756.000000pt" viewBox="0 0 1280.000000 756.000000"
 preserveAspectRatio="xMidYMid meet">
<g transform="translate(0.000000,756.000000) scale(0.100000,-0.100000)"
fill="#000000" stroke="none">
<path d="M5195 7388 c-190 -324 -367 -771 -474 -1198 -23 -91 -45 -168 -50
-173 -4 -4 -50 23 -102 61 -291 211 -578 381 -894 529 -121 56 -430 173 -459
173 -15 0 -68 -288 -88 -475 -21 -191 -17 -771 6 -983 10 -100 15 -177 9 -183
-5 -5 -36 0 -73 12 -434 135 -1037 226 -1408 212 -83 -3 -152 -8 -152 -10 0
-3 13 -84 30 -181 62 -372 205 -799 410 -1228 38 -81 68 -150 65 -154 -2 -4
-53 -10 -112 -14 -360 -23 -738 -87 -1076 -182 -126 -36 -403 -136 -418 -151
-8 -9 122 -240 202 -360 172 -256 364 -489 616 -744 146 -148 190 -199 181
-206 -7 -6 -78 -39 -157 -74 -258 -114 -567 -288 -822 -465 -138 -96 -412
-321 -407 -334 7 -16 235 -206 343 -285 690 -503 1609 -852 2475 -939 431 -44
495 -44 795 -7 808 100 1545 374 2220 826 157 106 306 215 293 215 -3 0 -68
-38 -145 -84 -790 -478 -1711 -738 -2528 -713 -761 24 -1556 285 -2270 745
-134 86 -323 224 -329 240 -15 37 506 371 808 518 l117 57 30 -22 c403 -298
949 -584 1354 -710 205 -63 534 -127 840 -163 177 -21 851 -17 1040 5 223 27
472 71 661 117 169 41 369 99 362 105 -1 1 -68 -10 -148 -26 -318 -62 -550
-87 -895 -96 -835 -20 -1579 156 -2225 527 -232 134 -589 388 -590 421 0 11
35 27 133 57 261 82 516 139 769 172 l143 18 185 -123 c289 -193 532 -324 839
-452 505 -211 1146 -361 1614 -378 l132 -5 -80 15 c-44 8 -132 24 -195 35
-292 52 -684 166 -975 282 -362 145 -746 357 -1010 557 -96 72 -95 85 4 76
432 -40 720 -93 1060 -196 121 -36 144 -47 230 -108 264 -187 591 -373 875
-496 130 -57 182 -69 84 -19 -157 79 -584 347 -617 387 -29 36 27 16 206 -72
205 -101 347 -181 511 -288 62 -40 115 -73 118 -73 4 0 -27 35 -66 77 -223
238 -548 659 -526 681 10 10 284 -272 406 -418 57 -69 133 -165 168 -213 36
-48 66 -86 68 -84 2 2 -16 48 -40 103 -86 196 -226 609 -261 771 -14 67 17 31
70 -80 80 -168 150 -348 224 -573 l66 -201 0 371 c0 441 12 613 39 585 18 -18
30 -251 31 -579 l0 -365 66 200 c78 234 149 415 227 575 39 82 57 109 59 94
11 -60 -134 -512 -254 -793 -24 -57 -43 -105 -41 -107 2 -2 39 44 81 102 103
138 268 332 407 477 116 121 150 149 150 124 0 -36 -311 -440 -471 -612 -145
-156 -145 -156 -24 -75 130 87 369 222 549 311 179 89 210 100 201 77 -12 -31
-350 -250 -572 -372 -68 -37 -123 -69 -123 -71 0 -6 120 45 250 105 249 116
539 284 768 444 98 70 136 89 213 114 283 91 590 154 898 187 179 19 274 20
269 3 -7 -20 -239 -179 -413 -283 -307 -185 -673 -350 -1030 -465 -255 -82
-491 -137 -855 -198 l-55 -10 66 -1 c74 -1 322 22 474 45 744 110 1442 376
2050 783 l200 133 112 -11 c147 -15 364 -55 533 -97 174 -45 387 -112 395
-125 10 -16 -11 -36 -140 -132 -551 -412 -1053 -634 -1695 -751 -339 -61 -592
-80 -990 -73 -361 6 -606 32 -929 98 -52 11 -96 18 -98 16 -6 -7 199 -66 370
-107 202 -49 451 -92 677 -117 234 -26 796 -26 1029 0 210 24 462 67 644 112
478 117 984 358 1442 686 68 49 130 89 136 89 19 0 310 -154 449 -237 138 -84
376 -245 435 -296 l39 -34 -60 -47 c-81 -64 -347 -241 -469 -311 -457 -264
-983 -461 -1490 -559 -458 -87 -848 -92 -1321 -16 -670 108 -1303 350 -1921
733 -7 5 -13 6 -13 3 0 -17 339 -252 510 -353 635 -378 1318 -606 2060 -689
278 -31 351 -31 735 7 272 27 589 89 879 174 699 203 1412 586 1885 1012 l55
49 -128 110 c-309 263 -712 511 -1131 694 -66 29 -126 57 -133 63 -9 7 35 58
175 201 250 254 431 472 605 728 82 120 221 364 216 379 -2 6 -62 33 -133 61
-362 137 -843 237 -1305 270 -85 6 -158 14 -162 17 -4 4 30 88 76 186 200 428
334 835 396 1205 23 134 27 176 17 183 -21 14 -451 0 -632 -22 -296 -35 -616
-101 -880 -180 -55 -16 -104 -26 -109 -21 -4 4 0 86 10 182 22 211 26 786 6
968 -20 189 -74 481 -89 487 -17 7 -273 -85 -418 -149 -301 -134 -657 -344
-944 -557 -46 -34 -88 -58 -92 -54 -4 4 -19 55 -34 113 -119 474 -295 921
-500 1269 -42 72 -81 133 -86 136 -16 11 -275 -213 -429 -371 -229 -235 -420
-470 -599 -736 -39 -60 -76 -108 -81 -108 -5 0 -41 47 -80 105 -251 375 -580
748 -873 992 -82 68 -152 123 -155 123 -4 0 -47 -69 -97 -152z m431 -860 c94
-95 213 -225 265 -288 95 -114 257 -325 265 -346 3 -5 -21 -64 -52 -130 -116
-248 -229 -546 -294 -776 -20 -70 -38 -118 -45 -118 -7 0 -43 42 -79 93 -118
166 -297 378 -475 560 l-175 178 34 112 c46 153 141 416 202 556 77 178 157
331 171 331 8 0 90 -78 183 -172z m1773 115 c125 -249 270 -625 340 -881 l20
-72 -136 -138 c-177 -179 -316 -341 -455 -529 -62 -83 -119 -151 -127 -150 -9
1 -25 40 -42 101 -74 260 -171 517 -286 759 l-75 158 35 53 c48 72 222 289
320 400 120 134 345 356 362 356 8 0 28 -26 44 -57z m-3494 -712 c194 -94 403
-212 566 -322 l122 -81 -7 -82 c-22 -278 -26 -351 -26 -537 0 -113 5 -264 10
-334 6 -75 7 -132 2 -137 -5 -5 -65 28 -143 80 -221 148 -462 281 -700 387
-57 26 -110 52 -117 59 -23 22 -37 387 -23 635 13 243 28 395 41 428 l10 23
52 -21 c29 -11 125 -55 213 -98z m5264 97 c5 -13 15 -84 22 -158 19 -183 19
-865 1 -898 -8 -13 -40 -34 -75 -49 -200 -85 -580 -295 -774 -429 -51 -35 -98
-64 -104 -64 -7 0 -8 45 -2 153 12 221 6 591 -12 768 -8 85 -15 161 -15 170 0
26 278 202 535 340 95 51 391 188 408 189 4 0 11 -10 16 -22z m-2670 -706
c115 -227 215 -476 285 -706 l35 -115 -55 -116 c-143 -301 -245 -604 -349
-1043 -12 -49 -29 -10 -75 173 -79 316 -182 606 -307 868 l-57 118 13 52 c22
85 85 273 136 402 52 133 196 436 240 504 l28 45 18 -23 c10 -12 49 -84 88
-159z m-1363 -244 c183 -178 338 -350 463 -515 91 -119 88 -109 71 -283 -16
-153 -12 -624 5 -800 27 -266 28 -290 19 -290 -5 0 -45 55 -89 122 -172 261
-350 482 -570 706 l-150 154 -4 271 c-3 271 6 449 35 657 17 125 21 140 39
140 7 0 88 -73 181 -162z m2726 112 c19 -109 39 -316 48 -498 9 -192 0 -515
-15 -530 -65 -64 -292 -309 -350 -377 -104 -121 -256 -325 -350 -467 -42 -65
-80 -120 -85 -123 -17 -10 -17 11 -5 115 29 236 38 421 32 698 -3 152 -11 315
-17 360 l-10 84 47 66 c137 193 337 417 528 593 77 71 147 128 155 127 9 -2
18 -21 22 -48z m-5372 -396 c251 -26 710 -115 746 -144 7 -6 18 -34 24 -63 54
-227 174 -581 284 -831 31 -71 53 -133 49 -137 -4 -4 -80 10 -168 32 -250 61
-485 96 -835 127 l-85 7 -22 45 c-41 83 -161 394 -203 525 -56 175 -122 435
-115 453 6 15 62 13 325 -14z m8145 17 c7 -13 -63 -283 -120 -460 -45 -139
-145 -397 -199 -513 -30 -63 -19 -59 -201 -73 -228 -18 -558 -73 -788 -131
-55 -14 -106 -23 -113 -20 -11 4 -5 24 22 83 103 225 224 563 279 785 49 193
41 176 88 189 23 6 112 26 197 44 215 47 377 70 680 98 77 8 149 6 155 -2z
m-6780 -371 c219 -93 473 -228 672 -356 123 -80 110 -61 148 -214 57 -225 192
-582 327 -862 45 -93 79 -171 75 -174 -3 -3 -52 29 -109 71 -249 186 -496 336
-792 481 l-188 92 -40 88 c-100 225 -197 524 -254 785 -15 70 -24 134 -21 142
7 19 22 15 182 -53z m5267 35 c-2 -16 -23 -112 -47 -212 -51 -210 -128 -447
-211 -646 l-57 -138 -161 -78 c-279 -134 -521 -280 -776 -465 -95 -69 -146
-101 -148 -92 -2 8 26 73 62 145 157 313 276 634 366 989 10 41 18 48 125 117
214 140 402 239 675 356 153 66 177 69 172 24z m-3147 -527 c129 -272 235
-570 315 -891 48 -192 49 -200 39 -275 -16 -125 -23 -708 -10 -867 30 -361 27
-370 -39 -120 -76 292 -188 601 -318 880 -57 122 -62 138 -76 255 -28 227 -39
446 -32 680 8 285 29 470 52 470 3 0 34 -60 69 -132z m945 -3 c30 -283 23
-702 -16 -1027 -14 -120 -19 -134 -78 -265 -149 -326 -243 -597 -346 -1002
-21 -82 -27 -26 -12 114 20 188 22 808 3 991 l-13 131 47 188 c77 307 175 584
304 860 57 120 80 154 92 133 4 -7 12 -62 19 -123z m-1810 -332 c239 -245 428
-479 605 -749 72 -109 79 -124 116 -261 83 -302 189 -588 325 -874 102 -215
99 -221 -22 -46 -183 266 -359 479 -580 707 l-151 155 -76 151 c-99 197 -176
381 -243 579 -61 182 -127 432 -120 452 9 22 32 4 146 -114z m2717 84 c-9 -63
-88 -334 -142 -482 -66 -184 -135 -346 -223 -525 l-76 -155 -141 -145 c-162
-167 -239 -254 -353 -397 -73 -92 -117 -154 -267 -367 -27 -39 -50 -65 -52
-60 -2 6 27 75 65 155 134 281 250 594 331 893 35 126 49 162 92 230 120 189
271 389 436 576 119 135 307 320 325 320 7 0 9 -15 5 -43z m2243 -317 c0 -5
-19 -40 -41 -77 -148 -241 -349 -504 -540 -706 l-74 -77 -115 -10 c-338 -30
-684 -96 -991 -190 -91 -28 -129 -36 -129 -25 0 2 87 91 193 197 202 203 354
380 500 581 146 203 115 179 279 215 210 47 391 74 633 95 95 8 285 6 285 -3z
m-6964 -15 c237 -23 601 -86 675 -118 17 -8 57 -54 105 -122 170 -241 358
-460 592 -687 122 -118 157 -158 138 -158 -2 0 -48 14 -102 31 -321 99 -694
171 -1027 197 -108 9 -108 9 -148 48 -57 55 -196 214 -285 325 -119 149 -324
458 -324 487 0 17 181 15 376 -3z m-819 -17 c11 -13 40 -52 63 -88 122 -182
323 -431 496 -611 63 -65 114 -122 114 -128 0 -13 -13 -16 -200 -36 -241 -25
-554 -89 -815 -165 l-69 -20 -61 63 c-105 108 -234 258 -335 387 -120 154
-270 373 -270 394 0 38 507 159 838 201 64 8 131 16 147 18 62 8 72 6 92 -15z
m8424 7 c352 -46 870 -167 877 -206 3 -17 -90 -160 -202 -309 -104 -139 -254
-316 -370 -436 l-101 -105 -127 35 c-263 72 -522 122 -783 152 -83 9 -154 20
-160 25 -6 6 27 46 86 107 179 181 338 375 509 620 106 152 82 142 271 117z
m-2194 -377 c-159 -235 -353 -463 -593 -698 l-159 -156 -190 -93 c-295 -143
-580 -313 -799 -475 -78 -57 -116 -81 -116 -70 0 4 84 93 188 198 242 247 390
424 560 669 69 101 85 117 196 200 276 206 543 365 829 493 92 41 145 60 151
54 7 -7 -17 -49 -67 -122z m-4137 54 c367 -172 891 -510 973 -630 181 -261
394 -518 629 -756 87 -88 155 -162 153 -164 -2 -2 -55 32 -117 76 -333 235
-538 353 -965 553 -54 26 -354 324 -492 489 -169 202 -351 454 -351 487 0 22
18 16 170 -55z"/>
</g>
</svg>
